<svg xmlns="http://www.w3.org/2000/svg" xmlns:xlink="http://www.w3.org/1999/xlink" width="32" height="32" viewBox="0 0 32 32">
    <defs>
        <linearGradient id="a" x1="23.698%" x2="84.005%" y1="162.283%" y2="-7.433%">
            <stop offset="0%" stop-color="#46E5F2"/>
            <stop offset="100%" stop-color="#9E66FF"/>
        </linearGradient>
        <path id="b" d="M0 0h31.73v31.778H0z"/>
    </defs>
    <g fill="none" fill-rule="evenodd">
        <path fill="url(#a)" d="M18.868 14c-1.36 0-1.968.747-2.309 1.272v-1.09H14c.031.721 0 7.706 0 7.706h2.56v-4.303c0-.231.014-.463.083-.625.185-.462.607-.938 1.316-.938.925 0 1.297.707 1.297 1.741v4.125h2.562v-4.422c0-2.366-1.265-3.466-2.95-3.466z"/>
        <mask id="c" fill="#fff">
            <use xlink:href="#b"/>
        </mask>
        <g fill="url(#a)" mask="url(#c)">
            <path d="M10 21.706h2.562V14H10z"/>
            <path d="M15.887 0C7.128 0 0 7.129 0 15.888c0 8.762 7.128 15.89 15.887 15.89 8.763 0 15.891-7.128 15.891-15.89C31.778 7.128 24.65 0 15.888 0zm8.429 23.075c0 .675-.563 1.222-1.257 1.222H8.61c-.69 0-1.253-.547-1.253-1.222V8.457c0-.675.562-1.226 1.254-1.226h14.45c.693 0 1.256.55 1.256 1.226v14.618z"/>
        </g>
        <path fill="url(#a)" d="M11.447 10c-.875 0-1.447.575-1.447 1.332 0 .74.557 1.331 1.416 1.331h.016c.894 0 1.45-.591 1.45-1.331-.019-.757-.556-1.332-1.435-1.332z" mask="url(#c)"/>
    </g>
</svg>
